# xmcd
# Copyright (C) 1995-1998 Ti Kan
#
# Track frame offsets:
#       150
#       20536
#       36835
#       50050
#       70939
#       87818
#       99392
#       118822
#       143489
#       161802
#       177370
#       194216
#       207081
#
# Disc length: 3072 seconds
#
# Revision: 0
# Processed by: cddbd v1.5.2PL0 Copyright (c) Steve Scherf et al.
# Submitted via: CD-Import v1.0
#
DISCID=bb0bfe0d
DTITLE=Graham Coxon - Love Travels At Illegal Speed
DYEAR=2006
DGENRE=
TTITLE0=Standing On My Own Again
TTITLE1=I Can't Look At Your Skin
TTITLE2=Don't Let Your Man Know
TTITLE3=Just A State Of Mind
TTITLE4=You And I
TTITLE5=Gimme Some Love
TTITLE6=I Don't Wanna Go Out
TTITLE7=Don't Believe Anything I Say
TTITLE8=Tell It Like It Is
TTITLE9=Flights To The Sea (Lovely Rain)
TTITLE10=What's He Got?
TTITLE11=You Always Let Me Down
TTITLE12=See A Better Day
EXTD=
EXTT0=
EXTT1=
EXTT2=
EXTT3=
EXTT4=
EXTT5=
EXTT6=
EXTT7=
EXTT8=
EXTT9=
EXTT10=
EXTT11=
EXTT12=
PLAYORDER=
